<svg width="380" height="240" viewBox="0 0 380 240" fill="none" xmlns="http://www.w3.org/2000/svg">
<g clip-path="url(#clip0_12_5346)">
<rect width="380" height="240" rx="16.5127" fill="url(#paint0_linear_12_5346)"/>
<path opacity="0.75" d="M437.544 61.4173C419.234 63.6841 400.328 64.0047 382.026 61.5545C365.68 59.3813 349.179 55.694 343.104 38.2217C340.517 30.5746 340.006 22.091 341.15 14.0906C342.32 5.48335 345.757 -2.17718 347.938 -10.5958C353.032 -30.8794 330.969 -40.7589 314.517 -43.3013C296.515 -45.9577 277.479 -42.603 260.072 -38.1583C241.558 -33.3956 223.853 -25.9482 206.938 -17.1301C171.903 0.892875 140.186 25.9131 110.529 51.5796C92.3225 67.3219 74.833 83.897 58.3293 101.267C48.8663 111.3 27.659 131.9 38.6806 146.712C40.0834 148.546 42.4332 148.11 43.5545 146.31C47.2131 140.264 50.0971 134.16 54.773 128.741C60.5758 121.958 67.2958 115.871 73.61 109.621C87.8656 95.4136 102.701 81.839 118.017 68.9656C147.584 44.2437 178.923 21.2501 212.878 2.93831C228.317 -5.45572 244.617 -12.3788 261.581 -17.2556C277.339 -21.7456 295.126 -25.4205 311.541 -23.1472C314.945 -22.6874 318.387 -21.9585 321.633 -20.6543C323.494 -19.8706 325.523 -19.0555 327.152 -17.9655C329.018 -16.7439 328.912 -17.113 329.029 -15.868C329.205 -12.6022 326.768 -8.42544 325.832 -5.27952C324.506 -0.982844 323.518 3.37673 322.936 7.89931C320.516 24.1377 321.744 41.4054 330.605 55.6396C341.011 72.3464 360.88 79.0208 379.672 80.2516C400.381 81.4903 420.091 78.2613 438.924 69.4512C443.038 67.5093 442.481 60.6773 437.544 61.4173Z" fill="#FFD300"/>
<path opacity="0.75" d="M-159.799 162.165C-141.489 159.898 -122.583 159.577 -104.281 162.028C-87.9346 164.201 -71.4341 167.888 -65.3588 185.36C-62.7723 193.007 -62.2614 201.491 -63.4053 209.491C-64.5753 218.099 -68.0116 225.759 -70.1934 234.178C-75.2873 254.461 -53.224 264.341 -36.7717 266.883C-18.7701 269.54 0.265936 266.185 17.6731 261.74C36.1867 256.978 53.8925 249.53 70.807 240.712C105.843 222.689 137.56 197.669 167.216 172.002C185.423 156.26 202.912 139.685 219.416 122.315C228.879 112.282 250.086 91.6818 239.065 76.8701C237.662 75.0358 235.312 75.4716 234.191 77.2723C230.532 83.3185 227.648 89.4218 222.972 94.8415C217.169 101.624 210.449 107.711 204.135 113.961C189.88 128.168 175.044 141.743 159.728 154.616C130.161 179.338 98.8223 202.332 64.8671 220.644C49.4277 229.038 33.1285 235.961 16.1642 240.838C0.406354 245.328 -17.3807 249.003 -33.796 246.729C-37.2002 246.269 -40.6415 245.541 -43.8882 244.236C-45.7487 243.453 -47.7779 242.638 -49.4068 241.548C-51.2728 240.326 -51.1673 240.695 -51.2839 239.45C-51.4598 236.184 -49.0225 232.007 -48.0864 228.862C-46.7611 224.565 -45.7731 220.205 -45.1909 215.683C-42.7714 199.444 -43.9988 182.177 -52.8598 167.942C-63.266 151.236 -83.1353 144.561 -101.926 143.33C-122.636 142.092 -142.346 145.321 -161.179 154.131C-165.293 156.073 -164.736 162.905 -159.799 162.165Z" fill="#FFD300"/>
<path d="M-315.346 150.191C-288.757 143.227 -260.903 139.019 -233.396 139.022C-208.831 139.002 -183.741 141.188 -171.33 165.787C-166.005 176.568 -163.58 188.994 -163.694 201.034C-163.727 213.974 -167.293 225.964 -168.857 238.826C-172.385 269.783 -137.862 280.013 -113.068 280.518C-85.9635 280.884 -58.5154 272.171 -33.6871 262.17C-7.28779 251.48 17.3903 236.986 40.6301 220.625C88.815 187.092 130.722 143.882 169.459 100.126C193.244 73.2844 215.805 45.3553 236.755 16.4464C248.752 -0.236409 276.011 -34.8439 256.82 -54.5379C254.388 -56.9693 251.004 -55.8617 249.703 -52.9813C245.491 -43.3308 242.434 -33.7492 236.597 -24.8228C229.364 -13.6617 220.64 -3.34593 212.547 7.13036C194.294 30.924 175.06 53.8985 154.98 75.9325C116.189 118.277 74.4408 158.419 27.908 192.165C6.76294 207.609 -15.9413 221.051 -40.0306 231.603C-62.4146 241.345 -87.9553 250.285 -112.642 250.17C-117.759 250.164 -122.984 249.767 -128.035 248.483C-130.936 247.693 -134.093 246.89 -136.713 245.602C-139.709 244.167 -139.48 244.691 -139.897 242.876C-140.8 238.089 -138.024 231.44 -137.261 226.61C-136.15 220.003 -135.549 213.371 -135.58 206.578C-135.204 182.122 -140.417 156.867 -156.303 137.599C-174.958 114.986 -205.611 109.055 -233.6 110.949C-264.423 113.21 -292.892 121.872 -318.966 138.6C-324.658 142.28 -322.49 152.258 -315.346 150.191Z" fill="#FFC02D"/>
<path d="M56.704 38.8H58.952L63.024 50H60.952L60.232 48.016H55.432L54.712 50H52.64L56.704 38.8ZM56.144 46.064H59.512L57.824 41.448L56.144 46.064ZM64.4649 50L64.4569 42H66.4089L66.4169 42.712C66.6889 42.424 67.0142 42.1973 67.3929 42.032C67.7715 41.8613 68.1795 41.776 68.6169 41.776C68.9102 41.776 69.2035 41.8187 69.4969 41.904L68.7289 43.872C68.5262 43.792 68.3235 43.752 68.1209 43.752C67.8062 43.752 67.5182 43.8293 67.2569 43.984C67.0009 44.1333 66.7955 44.3387 66.6409 44.6C66.4915 44.856 66.4169 45.1413 66.4169 45.456V50H64.4649ZM75.1011 43.952H73.5491V50H71.5971V43.952H70.4131V42H71.5971V39.488H73.5491V42H75.1011V43.952ZM84.0755 44.944V50H82.1235V45.456C82.1235 45.1413 82.0462 44.856 81.8915 44.6C81.7368 44.3387 81.5288 44.1333 81.2675 43.984C81.0115 43.8293 80.7262 43.752 80.4115 43.752C80.0968 43.752 79.8088 43.8293 79.5475 43.984C79.2915 44.1333 79.0862 44.3387 78.9315 44.6C78.7822 44.856 78.7075 45.1413 78.7075 45.456V50H76.7555L76.7475 38H78.6995L78.7075 42.712C78.9795 42.424 79.3048 42.1973 79.6835 42.032C80.0622 41.8613 80.4702 41.776 80.9075 41.776C81.4888 41.776 82.0195 41.92 82.4995 42.208C82.9795 42.4907 83.3608 42.872 83.6435 43.352C83.9315 43.8267 84.0755 44.3573 84.0755 44.944ZM85.5494 47.04V42H87.5014V46.528C87.5014 46.8427 87.5787 47.1307 87.7334 47.392C87.888 47.648 88.0934 47.8533 88.3494 48.008C88.6107 48.1573 88.896 48.232 89.2054 48.232C89.5254 48.232 89.8134 48.1573 90.0694 48.008C90.3254 47.8533 90.5307 47.648 90.6854 47.392C90.84 47.1307 90.9174 46.8427 90.9174 46.528V42H92.8694L92.8774 50H90.9254L90.9174 49.272C90.64 49.56 90.312 49.7893 89.9334 49.96C89.5547 50.1253 89.1494 50.208 88.7174 50.208C88.136 50.208 87.6054 50.0667 87.1254 49.784C86.6454 49.496 86.2614 49.1147 85.9734 48.64C85.6907 48.16 85.5494 47.6267 85.5494 47.04ZM94.6868 50L94.6788 42H96.6308L96.6388 42.712C96.9108 42.424 97.2361 42.1973 97.6148 42.032C97.9934 41.8613 98.4014 41.776 98.8388 41.776C99.1321 41.776 99.4254 41.8187 99.7188 41.904L98.9508 43.872C98.7481 43.792 98.5454 43.752 98.3428 43.752C98.0281 43.752 97.7401 43.8293 97.4788 43.984C97.2228 44.1333 97.0174 44.3387 96.8628 44.6C96.7134 44.856 96.6388 45.1413 96.6388 45.456V50H94.6868ZM105.079 50L107.255 38.8H108.871L111.599 45.976L114.327 38.8H115.943L118.119 50H116.127L114.783 43.072L112.263 49.744H110.927L108.407 43.072L107.071 50H105.079ZM124.348 47.592L126.108 48.544C125.74 49.0453 125.279 49.448 124.724 49.752C124.169 50.056 123.564 50.208 122.908 50.208C122.172 50.208 121.5 50.0187 120.892 49.64C120.289 49.2613 119.807 48.7547 119.444 48.12C119.087 47.48 118.908 46.7733 118.908 46C118.908 45.4133 119.012 44.8667 119.22 44.36C119.428 43.848 119.713 43.4 120.076 43.016C120.444 42.6267 120.871 42.3227 121.356 42.104C121.841 41.8853 122.359 41.776 122.908 41.776C123.564 41.776 124.169 41.928 124.724 42.232C125.279 42.536 125.74 42.944 126.108 43.456L124.348 44.4C124.161 44.1867 123.94 44.0213 123.684 43.904C123.433 43.7867 123.175 43.728 122.908 43.728C122.524 43.728 122.177 43.8347 121.868 44.048C121.559 44.256 121.313 44.5333 121.132 44.88C120.951 45.2213 120.86 45.5947 120.86 46C120.86 46.4 120.951 46.7733 121.132 47.12C121.313 47.4613 121.559 47.736 121.868 47.944C122.177 48.152 122.524 48.256 122.908 48.256C123.185 48.256 123.449 48.1973 123.7 48.08C123.951 47.9573 124.167 47.7947 124.348 47.592ZM132.928 50.208C132.171 50.208 131.459 50.0587 130.792 49.76C130.126 49.456 129.539 49.0373 129.032 48.504C128.531 47.9707 128.136 47.3547 127.848 46.656C127.566 45.952 127.424 45.2 127.424 44.4C127.424 43.5947 127.566 42.8427 127.848 42.144C128.136 41.44 128.531 40.824 129.032 40.296C129.539 39.7627 130.126 39.3467 130.792 39.048C131.459 38.744 132.171 38.592 132.928 38.592C133.835 38.592 134.67 38.8027 135.432 39.224C136.195 39.64 136.827 40.1973 137.328 40.896L135.584 41.832C135.27 41.4427 134.878 41.1307 134.408 40.896C133.944 40.6613 133.451 40.544 132.928 40.544C132.438 40.544 131.976 40.6453 131.544 40.848C131.112 41.0453 130.734 41.3227 130.408 41.68C130.083 42.032 129.83 42.4427 129.648 42.912C129.467 43.376 129.376 43.872 129.376 44.4C129.376 44.9333 129.467 45.432 129.648 45.896C129.835 46.36 130.091 46.7707 130.416 47.128C130.742 47.48 131.118 47.7573 131.544 47.96C131.976 48.1573 132.438 48.256 132.928 48.256C133.462 48.256 133.958 48.1387 134.416 47.904C134.88 47.664 135.27 47.3493 135.584 46.96L137.328 47.904C136.827 48.5973 136.195 49.1547 135.432 49.576C134.67 49.9973 133.835 50.208 132.928 50.208ZM144.648 42H146.6V50H144.648L144.56 49.008C144.342 49.3653 144.051 49.656 143.688 49.88C143.331 50.0987 142.907 50.208 142.416 50.208C141.824 50.208 141.27 50.096 140.752 49.872C140.235 49.648 139.779 49.3387 139.384 48.944C138.995 48.5493 138.688 48.0933 138.464 47.576C138.246 47.0587 138.136 46.504 138.136 45.912C138.136 45.3413 138.24 44.8053 138.448 44.304C138.662 43.8027 138.958 43.3627 139.336 42.984C139.715 42.6053 140.152 42.3093 140.648 42.096C141.144 41.8827 141.678 41.776 142.248 41.776C142.776 41.776 143.248 41.8933 143.664 42.128C144.086 42.3627 144.443 42.6613 144.736 43.024L144.648 42ZM142.368 48.328C142.784 48.328 143.152 48.224 143.472 48.016C143.792 47.808 144.043 47.528 144.224 47.176C144.406 46.8187 144.496 46.4267 144.496 46C144.496 45.568 144.406 45.176 144.224 44.824C144.043 44.4667 143.79 44.184 143.464 43.976C143.144 43.768 142.779 43.664 142.368 43.664C141.958 43.664 141.582 43.7707 141.24 43.984C140.904 44.192 140.635 44.472 140.432 44.824C140.235 45.176 140.136 45.568 140.136 46C140.136 46.432 140.238 46.824 140.44 47.176C140.643 47.528 140.912 47.808 141.248 48.016C141.59 48.224 141.963 48.328 142.368 48.328ZM148.074 47.04V42H150.026V46.528C150.026 46.8427 150.104 47.1307 150.258 47.392C150.413 47.648 150.618 47.8533 150.874 48.008C151.136 48.1573 151.421 48.232 151.73 48.232C152.05 48.232 152.338 48.1573 152.594 48.008C152.85 47.8533 153.056 47.648 153.21 47.392C153.365 47.1307 153.442 46.8427 153.442 46.528V42H155.394L155.402 50H153.45L153.442 49.272C153.165 49.56 152.837 49.7893 152.458 49.96C152.08 50.1253 151.674 50.208 151.242 50.208C150.661 50.208 150.13 50.0667 149.65 49.784C149.17 49.496 148.786 49.1147 148.498 48.64C148.216 48.16 148.074 47.6267 148.074 47.04ZM157.251 50V38H159.203V50H157.251ZM164.721 50.208C163.985 50.208 163.313 50.0187 162.705 49.64C162.102 49.2613 161.619 48.752 161.257 48.112C160.899 47.472 160.721 46.7653 160.721 45.992C160.721 45.4107 160.825 44.8667 161.033 44.36C161.241 43.848 161.526 43.4 161.889 43.016C162.257 42.6267 162.683 42.3227 163.169 42.104C163.654 41.8853 164.171 41.776 164.721 41.776C165.345 41.776 165.915 41.9093 166.433 42.176C166.955 42.4373 167.398 42.7973 167.761 43.256C168.123 43.7147 168.387 44.2373 168.553 44.824C168.718 45.4107 168.755 46.024 168.665 46.664H162.817C162.891 46.9627 163.014 47.232 163.185 47.472C163.355 47.7067 163.571 47.896 163.833 48.04C164.094 48.1787 164.39 48.2507 164.721 48.256C165.062 48.2613 165.371 48.1813 165.649 48.016C165.931 47.8453 166.166 47.616 166.353 47.328L168.345 47.792C168.019 48.5013 167.534 49.0827 166.889 49.536C166.243 49.984 165.521 50.208 164.721 50.208ZM162.753 45.2H166.689C166.63 44.88 166.505 44.592 166.313 44.336C166.126 44.0747 165.894 43.8667 165.617 43.712C165.339 43.5573 165.041 43.48 164.721 43.48C164.401 43.48 164.105 43.5573 163.833 43.712C163.561 43.8613 163.329 44.0667 163.137 44.328C162.95 44.584 162.822 44.8747 162.753 45.2ZM175.154 42H177.226L172.85 54H170.778L172.226 50L169.346 42H171.482L173.202 47.328L175.154 42Z" fill="#212121"/>
<path d="M56.3774 122.406C55.927 122.406 55.4947 122.325 55.0804 122.163C54.6841 121.983 54.3328 121.74 54.0266 121.433C53.7383 121.109 53.5042 120.74 53.324 120.326C53.1619 119.893 53.0808 119.416 53.0808 118.894C53.0808 118.389 53.1619 117.921 53.324 117.488C53.5042 117.056 53.7383 116.687 54.0266 116.381C54.3328 116.074 54.6841 115.831 55.0804 115.651C55.4947 115.471 55.927 115.381 56.3774 115.381C56.8277 115.381 57.251 115.471 57.6473 115.651C58.0617 115.831 58.4219 116.074 58.7282 116.381C59.0344 116.687 59.2686 117.056 59.4307 117.488C59.6109 117.921 59.7009 118.389 59.7009 118.894C59.7009 119.416 59.6109 119.893 59.4307 120.326C59.2686 120.74 59.0344 121.109 58.7282 121.433C58.4219 121.74 58.0617 121.983 57.6473 122.163C57.251 122.325 56.8277 122.406 56.3774 122.406ZM66.2452 122.406C65.7949 122.406 65.3626 122.325 64.9482 122.163C64.5519 121.983 64.2007 121.74 63.8944 121.433C63.6062 121.109 63.372 120.74 63.1919 120.326C63.0298 119.893 62.9487 119.416 62.9487 118.894C62.9487 118.389 63.0298 117.921 63.1919 117.488C63.372 117.056 63.6062 116.687 63.8944 116.381C64.2007 116.074 64.5519 115.831 64.9482 115.651C65.3626 115.471 65.7949 115.381 66.2452 115.381C66.6956 115.381 67.1189 115.471 67.5152 115.651C67.9295 115.831 68.2898 116.074 68.5961 116.381C68.9023 116.687 69.1365 117.056 69.2986 117.488C69.4787 117.921 69.5688 118.389 69.5688 118.894C69.5688 119.416 69.4787 119.893 69.2986 120.326C69.1365 120.74 68.9023 121.109 68.5961 121.433C68.2898 121.74 67.9295 121.983 67.5152 122.163C67.1189 122.325 66.6956 122.406 66.2452 122.406ZM76.1131 122.406C75.6628 122.406 75.2304 122.325 74.8161 122.163C74.4198 121.983 74.0685 121.74 73.7623 121.433C73.4741 121.109 73.2399 120.74 73.0598 120.326C72.8976 119.893 72.8166 119.416 72.8166 118.894C72.8166 118.389 72.8976 117.921 73.0598 117.488C73.2399 117.056 73.4741 116.687 73.7623 116.381C74.0685 116.074 74.4198 115.831 74.8161 115.651C75.2304 115.471 75.6628 115.381 76.1131 115.381C76.5635 115.381 76.9868 115.471 77.3831 115.651C77.7974 115.831 78.1577 116.074 78.4639 116.381C78.7702 116.687 79.0043 117.056 79.1665 117.488C79.3466 117.921 79.4367 118.389 79.4367 118.894C79.4367 119.416 79.3466 119.893 79.1665 120.326C79.0043 120.74 78.7702 121.109 78.4639 121.433C78.1577 121.74 77.7974 121.983 77.3831 122.163C76.9868 122.325 76.5635 122.406 76.1131 122.406ZM85.981 122.406C85.5306 122.406 85.0983 122.325 84.684 122.163C84.2877 121.983 83.9364 121.74 83.6302 121.433C83.342 121.109 83.1078 120.74 82.9276 120.326C82.7655 119.893 82.6844 119.416 82.6844 118.894C82.6844 118.389 82.7655 117.921 82.9276 117.488C83.1078 117.056 83.342 116.687 83.6302 116.381C83.9364 116.074 84.2877 115.831 84.684 115.651C85.0983 115.471 85.5306 115.381 85.981 115.381C86.4313 115.381 86.8547 115.471 87.251 115.651C87.6653 115.831 88.0256 116.074 88.3318 116.381C88.638 116.687 88.8722 117.056 89.0343 117.488C89.2145 117.921 89.3045 118.389 89.3045 118.894C89.3045 119.416 89.2145 119.893 89.0343 120.326C88.8722 120.74 88.638 121.109 88.3318 121.433C88.0256 121.74 87.6653 121.983 87.251 122.163C86.8547 122.325 86.4313 122.406 85.981 122.406ZM102.339 122.406C101.889 122.406 101.456 122.325 101.042 122.163C100.646 121.983 100.295 121.74 99.9883 121.433C99.7001 121.109 99.4659 120.74 99.2858 120.326C99.1236 119.893 99.0426 119.416 99.0426 118.894C99.0426 118.389 99.1236 117.921 99.2858 117.488C99.4659 117.056 99.7001 116.687 99.9883 116.381C100.295 116.074 100.646 115.831 101.042 115.651C101.456 115.471 101.889 115.381 102.339 115.381C102.789 115.381 103.213 115.471 103.609 115.651C104.023 115.831 104.384 116.074 104.69 116.381C104.996 116.687 105.23 117.056 105.392 117.488C105.573 117.921 105.663 118.389 105.663 118.894C105.663 119.416 105.573 119.893 105.392 120.326C105.23 120.74 104.996 121.109 104.69 121.433C104.384 121.74 104.023 121.983 103.609 122.163C103.213 122.325 102.789 122.406 102.339 122.406ZM112.207 122.406C111.757 122.406 111.324 122.325 110.91 122.163C110.514 121.983 110.162 121.74 109.856 121.433C109.568 121.109 109.334 120.74 109.154 120.326C108.992 119.893 108.91 119.416 108.91 118.894C108.91 118.389 108.992 117.921 109.154 117.488C109.334 117.056 109.568 116.687 109.856 116.381C110.162 116.074 110.514 115.831 110.91 115.651C111.324 115.471 111.757 115.381 112.207 115.381C112.657 115.381 113.081 115.471 113.477 115.651C113.891 115.831 114.252 116.074 114.558 116.381C114.864 116.687 115.098 117.056 115.26 117.488C115.44 117.921 115.531 118.389 115.531 118.894C115.531 119.416 115.44 119.893 115.26 120.326C115.098 120.74 114.864 121.109 114.558 121.433C114.252 121.74 113.891 121.983 113.477 122.163C113.081 122.325 112.657 122.406 112.207 122.406ZM122.075 122.406C121.625 122.406 121.192 122.325 120.778 122.163C120.382 121.983 120.03 121.74 119.724 121.433C119.436 121.109 119.202 120.74 119.022 120.326C118.859 119.893 118.778 119.416 118.778 118.894C118.778 118.389 118.859 117.921 119.022 117.488C119.202 117.056 119.436 116.687 119.724 116.381C120.03 116.074 120.382 115.831 120.778 115.651C121.192 115.471 121.625 115.381 122.075 115.381C122.525 115.381 122.949 115.471 123.345 115.651C123.759 115.831 124.119 116.074 124.426 116.381C124.732 116.687 124.966 117.056 125.128 117.488C125.308 117.921 125.398 118.389 125.398 118.894C125.398 119.416 125.308 119.893 125.128 120.326C124.966 120.74 124.732 121.109 124.426 121.433C124.119 121.74 123.759 121.983 123.345 122.163C122.949 122.325 122.525 122.406 122.075 122.406ZM131.943 122.406C131.492 122.406 131.06 122.325 130.646 122.163C130.249 121.983 129.898 121.74 129.592 121.433C129.304 121.109 129.07 120.74 128.889 120.326C128.727 119.893 128.646 119.416 128.646 118.894C128.646 118.389 128.727 117.921 128.889 117.488C129.07 117.056 129.304 116.687 129.592 116.381C129.898 116.074 130.249 115.831 130.646 115.651C131.06 115.471 131.492 115.381 131.943 115.381C132.393 115.381 132.816 115.471 133.213 115.651C133.627 115.831 133.987 116.074 134.294 116.381C134.6 116.687 134.834 117.056 134.996 117.488C135.176 117.921 135.266 118.389 135.266 118.894C135.266 119.416 135.176 119.893 134.996 120.326C134.834 120.74 134.6 121.109 134.294 121.433C133.987 121.74 133.627 121.983 133.213 122.163C132.816 122.325 132.393 122.406 131.943 122.406ZM148.301 122.406C147.851 122.406 147.418 122.325 147.004 122.163C146.608 121.983 146.256 121.74 145.95 121.433C145.662 121.109 145.428 120.74 145.248 120.326C145.085 119.893 145.004 119.416 145.004 118.894C145.004 118.389 145.085 117.921 145.248 117.488C145.428 117.056 145.662 116.687 145.95 116.381C146.256 116.074 146.608 115.831 147.004 115.651C147.418 115.471 147.851 115.381 148.301 115.381C148.751 115.381 149.175 115.471 149.571 115.651C149.985 115.831 150.345 116.074 150.652 116.381C150.958 116.687 151.192 117.056 151.354 117.488C151.534 117.921 151.624 118.389 151.624 118.894C151.624 119.416 151.534 119.893 151.354 120.326C151.192 120.74 150.958 121.109 150.652 121.433C150.345 121.74 149.985 121.983 149.571 122.163C149.175 122.325 148.751 122.406 148.301 122.406ZM158.169 122.406C157.718 122.406 157.286 122.325 156.872 122.163C156.475 121.983 156.124 121.74 155.818 121.433C155.53 121.109 155.296 120.74 155.115 120.326C154.953 119.893 154.872 119.416 154.872 118.894C154.872 118.389 154.953 117.921 155.115 117.488C155.296 117.056 155.53 116.687 155.818 116.381C156.124 116.074 156.475 115.831 156.872 115.651C157.286 115.471 157.718 115.381 158.169 115.381C158.619 115.381 159.042 115.471 159.439 115.651C159.853 115.831 160.213 116.074 160.52 116.381C160.826 116.687 161.06 117.056 161.222 117.488C161.402 117.921 161.492 118.389 161.492 118.894C161.492 119.416 161.402 119.893 161.222 120.326C161.06 120.74 160.826 121.109 160.52 121.433C160.213 121.74 159.853 121.983 159.439 122.163C159.042 122.325 158.619 122.406 158.169 122.406ZM168.037 122.406C167.586 122.406 167.154 122.325 166.74 122.163C166.343 121.983 165.992 121.74 165.686 121.433C165.398 121.109 165.163 120.74 164.983 120.326C164.821 119.893 164.74 119.416 164.74 118.894C164.74 118.389 164.821 117.921 164.983 117.488C165.163 117.056 165.398 116.687 165.686 116.381C165.992 116.074 166.343 115.831 166.74 115.651C167.154 115.471 167.586 115.381 168.037 115.381C168.487 115.381 168.91 115.471 169.307 115.651C169.721 115.831 170.081 116.074 170.387 116.381C170.694 116.687 170.928 117.056 171.09 117.488C171.27 117.921 171.36 118.389 171.36 118.894C171.36 119.416 171.27 119.893 171.09 120.326C170.928 120.74 170.694 121.109 170.387 121.433C170.081 121.74 169.721 121.983 169.307 122.163C168.91 122.325 168.487 122.406 168.037 122.406ZM177.904 122.406C177.454 122.406 177.022 122.325 176.607 122.163C176.211 121.983 175.86 121.74 175.554 121.433C175.265 121.109 175.031 120.74 174.851 120.326C174.689 119.893 174.608 119.416 174.608 118.894C174.608 118.389 174.689 117.921 174.851 117.488C175.031 117.056 175.265 116.687 175.554 116.381C175.86 116.074 176.211 115.831 176.607 115.651C177.022 115.471 177.454 115.381 177.904 115.381C178.355 115.381 178.778 115.471 179.174 115.651C179.589 115.831 179.949 116.074 180.255 116.381C180.562 116.687 180.796 117.056 180.958 117.488C181.138 117.921 181.228 118.389 181.228 118.894C181.228 119.416 181.138 119.893 180.958 120.326C180.796 120.74 180.562 121.109 180.255 121.433C179.949 121.74 179.589 121.983 179.174 122.163C178.778 122.325 178.355 122.406 177.904 122.406ZM194.263 122.406C193.812 122.406 193.38 122.325 192.966 122.163C192.569 121.983 192.218 121.74 191.912 121.433C191.624 121.109 191.389 120.74 191.209 120.326C191.047 119.893 190.966 119.416 190.966 118.894C190.966 118.389 191.047 117.921 191.209 117.488C191.389 117.056 191.624 116.687 191.912 116.381C192.218 116.074 192.569 115.831 192.966 115.651C193.38 115.471 193.812 115.381 194.263 115.381C194.713 115.381 195.136 115.471 195.533 115.651C195.947 115.831 196.307 116.074 196.613 116.381C196.92 116.687 197.154 117.056 197.316 117.488C197.496 117.921 197.586 118.389 197.586 118.894C197.586 119.416 197.496 119.893 197.316 120.326C197.154 120.74 196.92 121.109 196.613 121.433C196.307 121.74 195.947 121.983 195.533 122.163C195.136 122.325 194.713 122.406 194.263 122.406ZM204.131 122.406C203.68 122.406 203.248 122.325 202.834 122.163C202.437 121.983 202.086 121.74 201.78 121.433C201.491 121.109 201.257 120.74 201.077 120.326C200.915 119.893 200.834 119.416 200.834 118.894C200.834 118.389 200.915 117.921 201.077 117.488C201.257 117.056 201.491 116.687 201.78 116.381C202.086 116.074 202.437 115.831 202.834 115.651C203.248 115.471 203.68 115.381 204.131 115.381C204.581 115.381 205.004 115.471 205.4 115.651C205.815 115.831 206.175 116.074 206.481 116.381C206.788 116.687 207.022 117.056 207.184 117.488C207.364 117.921 207.454 118.389 207.454 118.894C207.454 119.416 207.364 119.893 207.184 120.326C207.022 120.74 206.788 121.109 206.481 121.433C206.175 121.74 205.815 121.983 205.4 122.163C205.004 122.325 204.581 122.406 204.131 122.406ZM213.998 122.406C213.548 122.406 213.116 122.325 212.701 122.163C212.305 121.983 211.954 121.74 211.648 121.433C211.359 121.109 211.125 120.74 210.945 120.326C210.783 119.893 210.702 119.416 210.702 118.894C210.702 118.389 210.783 117.921 210.945 117.488C211.125 117.056 211.359 116.687 211.648 116.381C211.954 116.074 212.305 115.831 212.701 115.651C213.116 115.471 213.548 115.381 213.998 115.381C214.449 115.381 214.872 115.471 215.268 115.651C215.683 115.831 216.043 116.074 216.349 116.381C216.655 116.687 216.89 117.056 217.052 117.488C217.232 117.921 217.322 118.389 217.322 118.894C217.322 119.416 217.232 119.893 217.052 120.326C216.89 120.74 216.655 121.109 216.349 121.433C216.043 121.74 215.683 121.983 215.268 122.163C214.872 122.325 214.449 122.406 213.998 122.406ZM223.866 122.406C223.416 122.406 222.984 122.325 222.569 122.163C222.173 121.983 221.822 121.74 221.515 121.433C221.227 121.109 220.993 120.74 220.813 120.326C220.651 119.893 220.57 119.416 220.57 118.894C220.57 118.389 220.651 117.921 220.813 117.488C220.993 117.056 221.227 116.687 221.515 116.381C221.822 116.074 222.173 115.831 222.569 115.651C222.984 115.471 223.416 115.381 223.866 115.381C224.317 115.381 224.74 115.471 225.136 115.651C225.551 115.831 225.911 116.074 226.217 116.381C226.523 116.687 226.757 117.056 226.92 117.488C227.1 117.921 227.19 118.389 227.19 118.894C227.19 119.416 227.1 119.893 226.92 120.326C226.757 120.74 226.523 121.109 226.217 121.433C225.911 121.74 225.551 121.983 225.136 122.163C224.74 122.325 224.317 122.406 223.866 122.406ZM240.224 122.406C239.774 122.406 239.342 122.325 238.927 122.163C238.531 121.983 238.18 121.74 237.874 121.433C237.585 121.109 237.351 120.74 237.171 120.326C237.009 119.893 236.928 119.416 236.928 118.894C236.928 118.389 237.009 117.921 237.171 117.488C237.351 117.056 237.585 116.687 237.874 116.381C238.18 116.074 238.531 115.831 238.927 115.651C239.342 115.471 239.774 115.381 240.224 115.381C240.675 115.381 241.098 115.471 241.494 115.651C241.909 115.831 242.269 116.074 242.575 116.381C242.881 116.687 243.116 117.056 243.278 117.488C243.458 117.921 243.548 118.389 243.548 118.894C243.548 119.416 243.458 119.893 243.278 120.326C243.116 120.74 242.881 121.109 242.575 121.433C242.269 121.74 241.909 121.983 241.494 122.163C241.098 122.325 240.675 122.406 240.224 122.406ZM250.092 122.406C249.642 122.406 249.21 122.325 248.795 122.163C248.399 121.983 248.048 121.74 247.741 121.433C247.453 121.109 247.219 120.74 247.039 120.326C246.877 119.893 246.796 119.416 246.796 118.894C246.796 118.389 246.877 117.921 247.039 117.488C247.219 117.056 247.453 116.687 247.741 116.381C248.048 116.074 248.399 115.831 248.795 115.651C249.21 115.471 249.642 115.381 250.092 115.381C250.543 115.381 250.966 115.471 251.362 115.651C251.777 115.831 252.137 116.074 252.443 116.381C252.749 116.687 252.983 117.056 253.146 117.488C253.326 117.921 253.416 118.389 253.416 118.894C253.416 119.416 253.326 119.893 253.146 120.326C252.983 120.74 252.749 121.109 252.443 121.433C252.137 121.74 251.777 121.983 251.362 122.163C250.966 122.325 250.543 122.406 250.092 122.406ZM259.96 122.406C259.51 122.406 259.077 122.325 258.663 122.163C258.267 121.983 257.916 121.74 257.609 121.433C257.321 121.109 257.087 120.74 256.907 120.326C256.745 119.893 256.664 119.416 256.664 118.894C256.664 118.389 256.745 117.921 256.907 117.488C257.087 117.056 257.321 116.687 257.609 116.381C257.916 116.074 258.267 115.831 258.663 115.651C259.077 115.471 259.51 115.381 259.96 115.381C260.41 115.381 260.834 115.471 261.23 115.651C261.644 115.831 262.005 116.074 262.311 116.381C262.617 116.687 262.851 117.056 263.013 117.488C263.194 117.921 263.284 118.389 263.284 118.894C263.284 119.416 263.194 119.893 263.013 120.326C262.851 120.74 262.617 121.109 262.311 121.433C262.005 121.74 261.644 121.983 261.23 122.163C260.834 122.325 260.41 122.406 259.96 122.406ZM269.828 122.406C269.378 122.406 268.945 122.325 268.531 122.163C268.135 121.983 267.783 121.74 267.477 121.433C267.189 121.109 266.955 120.74 266.775 120.326C266.613 119.893 266.531 119.416 266.531 118.894C266.531 118.389 266.613 117.921 266.775 117.488C266.955 117.056 267.189 116.687 267.477 116.381C267.783 116.074 268.135 115.831 268.531 115.651C268.945 115.471 269.378 115.381 269.828 115.381C270.278 115.381 270.702 115.471 271.098 115.651C271.512 115.831 271.873 116.074 272.179 116.381C272.485 116.687 272.719 117.056 272.881 117.488C273.061 117.921 273.152 118.389 273.152 118.894C273.152 119.416 273.061 119.893 272.881 120.326C272.719 120.74 272.485 121.109 272.179 121.433C271.873 121.74 271.512 121.983 271.098 122.163C270.702 122.325 270.278 122.406 269.828 122.406Z" fill="white"/>
<path d="M55.0443 186.108C54.6721 186.108 54.3298 186.039 54.0176 185.901C53.7053 185.763 53.4321 185.565 53.1979 185.306C52.9697 185.042 52.7896 184.721 52.6575 184.343C52.5314 183.958 52.4684 183.526 52.4684 183.046C52.4684 182.571 52.5344 182.145 52.6665 181.767C52.7986 181.388 52.9818 181.067 53.2159 180.803C53.4501 180.539 53.7263 180.338 54.0446 180.2C54.3628 180.055 54.7111 179.983 55.0894 179.983C55.4497 179.983 55.7649 180.058 56.0351 180.209C56.3113 180.353 56.5365 180.521 56.7106 180.713L56.3053 181.199C56.1492 181.031 55.9721 180.896 55.7739 180.794C55.5758 180.692 55.3506 180.641 55.0984 180.641C54.8162 180.641 54.561 180.698 54.3328 180.812C54.1046 180.92 53.9095 181.079 53.7473 181.289C53.5852 181.494 53.4591 181.743 53.3691 182.037C53.285 182.331 53.243 182.661 53.243 183.028C53.243 183.4 53.285 183.736 53.3691 184.036C53.4591 184.331 53.5822 184.583 53.7383 184.793C53.8945 185.003 54.0836 185.165 54.3058 185.279C54.534 185.394 54.7891 185.451 55.0714 185.451C55.3596 185.451 55.6118 185.394 55.8279 185.279C56.0441 185.159 56.2483 184.994 56.4404 184.784L56.8547 185.252C56.6206 185.523 56.3564 185.733 56.0621 185.883C55.7679 186.033 55.4286 186.108 55.0443 186.108ZM59.2532 186.108C58.8869 186.108 58.5807 186 58.3345 185.784C58.0943 185.568 57.9742 185.261 57.9742 184.865C57.9742 184.385 58.1874 184.018 58.6137 183.766C59.04 183.508 59.7215 183.328 60.6583 183.226C60.6583 183.088 60.6433 182.953 60.6132 182.821C60.5892 182.688 60.5442 182.571 60.4781 182.469C60.4121 182.367 60.319 182.286 60.1989 182.226C60.0848 182.16 59.9377 182.127 59.7576 182.127C59.5054 182.127 59.2682 182.175 59.046 182.271C58.8239 182.367 58.6257 182.475 58.4516 182.595L58.1633 182.082C58.3675 181.95 58.6167 181.824 58.9109 181.704C59.2051 181.578 59.5294 181.515 59.8837 181.515C60.4181 181.515 60.8054 181.68 61.0456 182.01C61.2858 182.334 61.4058 182.77 61.4058 183.316V186H60.7934L60.7303 185.478H60.7033C60.4931 185.652 60.268 185.802 60.0278 185.928C59.7876 186.048 59.5294 186.108 59.2532 186.108ZM59.4694 185.514C59.6795 185.514 59.8777 185.466 60.0638 185.37C60.25 185.267 60.4481 185.12 60.6583 184.928V183.712C60.292 183.76 59.9827 183.817 59.7306 183.883C59.4844 183.949 59.2832 184.027 59.1271 184.118C58.977 184.208 58.8659 184.313 58.7938 184.433C58.7278 184.547 58.6948 184.673 58.6948 184.811C58.6948 185.063 58.7698 185.243 58.9199 185.352C59.07 185.46 59.2532 185.514 59.4694 185.514ZM63.1433 186V181.623H63.7558L63.8189 182.415H63.8459C63.996 182.139 64.1761 181.92 64.3863 181.758C64.6025 181.596 64.8366 181.515 65.0888 181.515C65.263 181.515 65.4191 181.545 65.5572 181.605L65.4131 182.253C65.341 182.229 65.275 182.211 65.2149 182.199C65.1549 182.187 65.0798 182.181 64.9898 182.181C64.8036 182.181 64.6085 182.256 64.4043 182.406C64.2062 182.556 64.032 182.818 63.8819 183.19V186H63.1433ZM68.0333 186.108C67.4809 186.108 67.0396 185.91 66.7093 185.514C66.3851 185.117 66.2229 184.553 66.2229 183.82C66.2229 183.466 66.274 183.148 66.3761 182.866C66.4841 182.577 66.6252 182.334 66.7994 182.136C66.9735 181.938 67.1747 181.785 67.4028 181.677C67.631 181.569 67.8712 181.515 68.1234 181.515C68.3756 181.515 68.5948 181.56 68.7809 181.65C68.967 181.74 69.1562 181.863 69.3483 182.019L69.3123 181.271V179.587H70.0599V186H69.4474L69.3844 185.487H69.3573C69.1832 185.655 68.9821 185.802 68.7539 185.928C68.5317 186.048 68.2915 186.108 68.0333 186.108ZM68.1955 185.487C68.3996 185.487 68.5918 185.439 68.7719 185.342C68.952 185.24 69.1322 185.087 69.3123 184.883V182.595C69.1262 182.427 68.946 182.31 68.7719 182.244C68.6038 182.172 68.4296 182.136 68.2495 182.136C68.0754 182.136 67.9102 182.178 67.7541 182.262C67.604 182.34 67.4719 182.454 67.3578 182.604C67.2437 182.748 67.1537 182.923 67.0876 183.127C67.0216 183.331 66.9885 183.559 66.9885 183.811C66.9885 184.34 67.0936 184.751 67.3038 185.045C67.5139 185.339 67.8112 185.487 68.1955 185.487ZM74.13 186V180.091H74.8775V182.568H77.6247V180.091H78.3812V186H77.6247V183.217H74.8775V186H74.13ZM81.9961 186.108C81.7259 186.108 81.4677 186.057 81.2215 185.955C80.9813 185.853 80.7682 185.706 80.582 185.514C80.3959 185.315 80.2458 185.075 80.1317 184.793C80.0236 184.505 79.9696 184.181 79.9696 183.82C79.9696 183.454 80.0236 183.13 80.1317 182.848C80.2458 182.559 80.3959 182.316 80.582 182.118C80.7682 181.92 80.9813 181.77 81.2215 181.668C81.4677 181.566 81.7259 181.515 81.9961 181.515C82.2663 181.515 82.5215 181.566 82.7617 181.668C83.0079 181.77 83.2241 181.92 83.4102 182.118C83.5964 182.316 83.7435 182.559 83.8515 182.848C83.9656 183.13 84.0227 183.454 84.0227 183.82C84.0227 184.181 83.9656 184.505 83.8515 184.793C83.7435 185.075 83.5964 185.315 83.4102 185.514C83.2241 185.706 83.0079 185.853 82.7617 185.955C82.5215 186.057 82.2663 186.108 81.9961 186.108ZM81.9961 185.496C82.1823 185.496 82.3534 185.457 82.5095 185.379C82.6656 185.294 82.7977 185.18 82.9058 185.036C83.0199 184.886 83.107 184.709 83.167 184.505C83.2271 184.301 83.2571 184.073 83.2571 183.82C83.2571 183.568 83.2271 183.34 83.167 183.136C83.107 182.926 83.0199 182.745 82.9058 182.595C82.7977 182.445 82.6656 182.331 82.5095 182.253C82.3534 182.169 82.1823 182.127 81.9961 182.127C81.81 182.127 81.6388 182.169 81.4827 182.253C81.3266 182.331 81.1915 182.445 81.0774 182.595C80.9693 182.745 80.8853 182.926 80.8252 183.136C80.7652 183.34 80.7351 183.568 80.7351 183.82C80.7351 184.073 80.7652 184.301 80.8252 184.505C80.8853 184.709 80.9693 184.886 81.0774 185.036C81.1915 185.18 81.3266 185.294 81.4827 185.379C81.6388 185.457 81.81 185.496 81.9961 185.496ZM86.3194 186.108C86.0372 186.108 85.836 186.024 85.7159 185.856C85.5958 185.688 85.5358 185.442 85.5358 185.117V179.587H86.2743V185.171C86.2743 185.291 86.2954 185.376 86.3374 185.424C86.3794 185.472 86.4275 185.496 86.4815 185.496C86.5055 185.496 86.5265 185.496 86.5446 185.496C86.5686 185.496 86.6016 185.49 86.6436 185.478L86.7427 186.036C86.6947 186.06 86.6376 186.078 86.5716 186.09C86.5055 186.102 86.4215 186.108 86.3194 186.108ZM89.6869 186.108C89.1345 186.108 88.6932 185.91 88.3629 185.514C88.0386 185.117 87.8765 184.553 87.8765 183.82C87.8765 183.466 87.9276 183.148 88.0296 182.866C88.1377 182.577 88.2788 182.334 88.453 182.136C88.6271 181.938 88.8283 181.785 89.0564 181.677C89.2846 181.569 89.5248 181.515 89.777 181.515C90.0292 181.515 90.2483 181.56 90.4345 181.65C90.6206 181.74 90.8098 181.863 91.0019 182.019L90.9659 181.271V179.587H91.7135V186H91.101L91.038 185.487H91.0109C90.8368 185.655 90.6356 185.802 90.4075 185.928C90.1853 186.048 89.9451 186.108 89.6869 186.108ZM89.849 185.487C90.0532 185.487 90.2453 185.439 90.4255 185.342C90.6056 185.24 90.7858 185.087 90.9659 184.883V182.595C90.7798 182.427 90.5996 182.31 90.4255 182.244C90.2574 182.172 90.0832 182.136 89.9031 182.136C89.7289 182.136 89.5638 182.178 89.4077 182.262C89.2576 182.34 89.1255 182.454 89.0114 182.604C88.8973 182.748 88.8072 182.923 88.7412 183.127C88.6751 183.331 88.6421 183.559 88.6421 183.811C88.6421 184.34 88.7472 184.751 88.9574 185.045C89.1675 185.339 89.4647 185.487 89.849 185.487ZM95.3224 186.108C95.0282 186.108 94.752 186.057 94.4938 185.955C94.2416 185.847 94.0194 185.697 93.8273 185.505C93.6411 185.306 93.494 185.066 93.386 184.784C93.2779 184.502 93.2238 184.181 93.2238 183.82C93.2238 183.46 93.2779 183.139 93.386 182.857C93.5 182.568 93.6472 182.325 93.8273 182.127C94.0134 181.929 94.2236 181.779 94.4578 181.677C94.692 181.569 94.9351 181.515 95.1873 181.515C95.4636 181.515 95.7097 181.563 95.9259 181.659C96.1481 181.755 96.3312 181.893 96.4753 182.073C96.6254 182.253 96.7395 182.469 96.8176 182.721C96.8957 182.974 96.9347 183.256 96.9347 183.568C96.9347 183.646 96.9317 183.724 96.9257 183.802C96.9257 183.874 96.9197 183.937 96.9077 183.991H93.9534C93.9834 184.46 94.1275 184.832 94.3857 185.108C94.6499 185.379 94.9922 185.514 95.4125 185.514C95.6227 185.514 95.8148 185.484 95.989 185.424C96.1691 185.358 96.3402 185.273 96.5024 185.171L96.7636 185.658C96.5714 185.778 96.3582 185.883 96.1241 185.973C95.8899 186.063 95.6227 186.108 95.3224 186.108ZM93.9444 183.46H96.2862C96.2862 183.016 96.1901 182.679 95.998 182.451C95.8118 182.217 95.5476 182.1 95.2054 182.1C95.0492 182.1 94.8991 182.13 94.755 182.19C94.6169 182.25 94.4908 182.34 94.3767 182.46C94.2626 182.574 94.1666 182.715 94.0885 182.884C94.0164 183.052 93.9684 183.244 93.9444 183.46ZM98.3766 186V181.623H98.9891L99.0522 182.415H99.0792C99.2293 182.139 99.4094 181.92 99.6196 181.758C99.8358 181.596 100.07 181.515 100.322 181.515C100.496 181.515 100.652 181.545 100.79 181.605L100.646 182.253C100.574 182.229 100.508 182.211 100.448 182.199C100.388 182.187 100.313 182.181 100.223 182.181C100.037 182.181 99.8418 182.256 99.6376 182.406C99.4395 182.556 99.2653 182.818 99.1152 183.19V186H98.3766ZM104.023 186V181.623H104.635L104.698 182.253H104.725C104.936 182.043 105.155 181.869 105.383 181.731C105.617 181.587 105.887 181.515 106.194 181.515C106.656 181.515 106.992 181.659 107.202 181.947C107.418 182.235 107.527 182.661 107.527 183.226V186H106.788V183.325C106.788 182.911 106.722 182.613 106.59 182.433C106.458 182.247 106.248 182.154 105.959 182.154C105.731 182.154 105.53 182.211 105.356 182.325C105.182 182.439 104.984 182.607 104.761 182.83V186H104.023ZM110.318 186.108C109.951 186.108 109.645 186 109.399 185.784C109.159 185.568 109.039 185.261 109.039 184.865C109.039 184.385 109.252 184.018 109.678 183.766C110.104 183.508 110.786 183.328 111.723 183.226C111.723 183.088 111.708 182.953 111.678 182.821C111.654 182.688 111.609 182.571 111.543 182.469C111.476 182.367 111.383 182.286 111.263 182.226C111.149 182.16 111.002 182.127 110.822 182.127C110.57 182.127 110.333 182.175 110.11 182.271C109.888 182.367 109.69 182.475 109.516 182.595L109.228 182.082C109.432 181.95 109.681 181.824 109.975 181.704C110.27 181.578 110.594 181.515 110.948 181.515C111.482 181.515 111.87 181.68 112.11 182.01C112.35 182.334 112.47 182.77 112.47 183.316V186H111.858L111.795 185.478H111.768C111.558 185.652 111.332 185.802 111.092 185.928C110.852 186.048 110.594 186.108 110.318 186.108ZM110.534 185.514C110.744 185.514 110.942 185.466 111.128 185.37C111.314 185.267 111.513 185.12 111.723 184.928V183.712C111.356 183.76 111.047 183.817 110.795 183.883C110.549 183.949 110.348 184.027 110.191 184.118C110.041 184.208 109.93 184.313 109.858 184.433C109.792 184.547 109.759 184.673 109.759 184.811C109.759 185.063 109.834 185.243 109.984 185.352C110.134 185.46 110.318 185.514 110.534 185.514ZM114.208 186V181.623H114.82L114.883 182.253H114.91C115.102 182.043 115.31 181.869 115.532 181.731C115.76 181.587 116.006 181.515 116.27 181.515C116.607 181.515 116.868 181.59 117.054 181.74C117.246 181.884 117.387 182.088 117.477 182.352C117.705 182.1 117.934 181.899 118.162 181.749C118.396 181.593 118.648 181.515 118.918 181.515C119.369 181.515 119.702 181.659 119.918 181.947C120.14 182.235 120.251 182.661 120.251 183.226V186H119.513V183.325C119.513 182.911 119.447 182.613 119.315 182.433C119.183 182.247 118.978 182.154 118.702 182.154C118.372 182.154 118.006 182.379 117.603 182.83V186H116.865V183.325C116.865 182.911 116.799 182.613 116.667 182.433C116.535 182.247 116.327 182.154 116.045 182.154C115.715 182.154 115.349 182.379 114.946 182.83V186H114.208ZM123.81 186.108C123.516 186.108 123.24 186.057 122.981 185.955C122.729 185.847 122.507 185.697 122.315 185.505C122.129 185.306 121.982 185.066 121.874 184.784C121.765 184.502 121.711 184.181 121.711 183.82C121.711 183.46 121.765 183.139 121.874 182.857C121.988 182.568 122.135 182.325 122.315 182.127C122.501 181.929 122.711 181.779 122.945 181.677C123.18 181.569 123.423 181.515 123.675 181.515C123.951 181.515 124.197 181.563 124.414 181.659C124.636 181.755 124.819 181.893 124.963 182.073C125.113 182.253 125.227 182.469 125.305 182.721C125.383 182.974 125.422 183.256 125.422 183.568C125.422 183.646 125.419 183.724 125.413 183.802C125.413 183.874 125.407 183.937 125.395 183.991H122.441C122.471 184.46 122.615 184.832 122.873 185.108C123.138 185.379 123.48 185.514 123.9 185.514C124.11 185.514 124.302 185.484 124.477 185.424C124.657 185.358 124.828 185.273 124.99 185.171L125.251 185.658C125.059 185.778 124.846 185.883 124.612 185.973C124.377 186.063 124.11 186.108 123.81 186.108ZM122.432 183.46H124.774C124.774 183.016 124.678 182.679 124.486 182.451C124.299 182.217 124.035 182.1 123.693 182.1C123.537 182.1 123.387 182.13 123.243 182.19C123.104 182.25 122.978 182.34 122.864 182.46C122.75 182.574 122.654 182.715 122.576 182.884C122.504 183.052 122.456 183.244 122.432 183.46Z" fill="white"/>
<path d="M54.4319 207.01C54.1817 207.01 53.9415 206.965 53.7113 206.875C53.4911 206.775 53.296 206.64 53.1259 206.47C52.9657 206.29 52.8356 206.085 52.7356 205.854C52.6455 205.614 52.6005 205.349 52.6005 205.059C52.6005 204.779 52.6455 204.518 52.7356 204.278C52.8356 204.038 52.9657 203.833 53.1259 203.663C53.296 203.493 53.4911 203.357 53.7113 203.257C53.9415 203.157 54.1817 203.107 54.4319 203.107C54.6821 203.107 54.9172 203.157 55.1374 203.257C55.3676 203.357 55.5677 203.493 55.7379 203.663C55.908 203.833 56.0381 204.038 56.1282 204.278C56.2283 204.518 56.2783 204.779 56.2783 205.059C56.2783 205.349 56.2283 205.614 56.1282 205.854C56.0381 206.085 55.908 206.29 55.7379 206.47C55.5677 206.64 55.3676 206.775 55.1374 206.875C54.9172 206.965 54.6821 207.01 54.4319 207.01ZM59.914 207.01C59.6638 207.01 59.4236 206.965 59.1935 206.875C58.9733 206.775 58.7781 206.64 58.608 206.47C58.4479 206.29 58.3178 206.085 58.2177 205.854C58.1276 205.614 58.0826 205.349 58.0826 205.059C58.0826 204.779 58.1276 204.518 58.2177 204.278C58.3178 204.038 58.4479 203.833 58.608 203.663C58.7781 203.493 58.9733 203.357 59.1935 203.257C59.4236 203.157 59.6638 203.107 59.914 203.107C60.1642 203.107 60.3994 203.157 60.6196 203.257C60.8497 203.357 61.0499 203.493 61.22 203.663C61.3902 203.833 61.5203 204.038 61.6103 204.278C61.7104 204.518 61.7604 204.779 61.7604 205.059C61.7604 205.349 61.7104 205.614 61.6103 205.854C61.5203 206.085 61.3902 206.29 61.22 206.47C61.0499 206.64 60.8497 206.775 60.6196 206.875C60.3994 206.965 60.1642 207.01 59.914 207.01ZM65.3962 207.01C65.146 207.01 64.9058 206.965 64.6756 206.875C64.4555 206.775 64.2603 206.64 64.0902 206.47C63.93 206.29 63.7999 206.085 63.6999 205.854C63.6098 205.614 63.5648 205.349 63.5648 205.059C63.5648 204.779 63.6098 204.518 63.6999 204.278C63.7999 204.038 63.93 203.833 64.0902 203.663C64.2603 203.493 64.4555 203.357 64.6756 203.257C64.9058 203.157 65.146 203.107 65.3962 203.107C65.6464 203.107 65.8815 203.157 66.1017 203.257C66.3319 203.357 66.532 203.493 66.7022 203.663C66.8723 203.833 67.0024 204.038 67.0925 204.278C67.1926 204.518 67.2426 204.779 67.2426 205.059C67.2426 205.349 67.1926 205.614 67.0925 205.854C67.0024 206.085 66.8723 206.29 66.7022 206.47C66.532 206.64 66.3319 206.775 66.1017 206.875C65.8815 206.965 65.6464 207.01 65.3962 207.01ZM70.8783 207.01C70.6281 207.01 70.3879 206.965 70.1578 206.875C69.9376 206.775 69.7425 206.64 69.5723 206.47C69.4122 206.29 69.2821 206.085 69.182 205.854C69.092 205.614 69.0469 205.349 69.0469 205.059C69.0469 204.779 69.092 204.518 69.182 204.278C69.2821 204.038 69.4122 203.833 69.5723 203.663C69.7425 203.493 69.9376 203.357 70.1578 203.257C70.3879 203.157 70.6281 203.107 70.8783 203.107C71.1285 203.107 71.3637 203.157 71.5839 203.257C71.814 203.357 72.0142 203.493 72.1843 203.663C72.3545 203.833 72.4846 204.038 72.5746 204.278C72.6747 204.518 72.7247 204.779 72.7247 205.059C72.7247 205.349 72.6747 205.614 72.5746 205.854C72.4846 206.085 72.3545 206.29 72.1843 206.47C72.0142 206.64 71.814 206.775 71.5839 206.875C71.3637 206.965 71.1285 207.01 70.8783 207.01ZM76.3605 207.01C76.1103 207.01 75.8701 206.965 75.6399 206.875C75.4198 206.775 75.2246 206.64 75.0545 206.47C74.8943 206.29 74.7642 206.085 74.6642 205.854C74.5741 205.614 74.5291 205.349 74.5291 205.059C74.5291 204.779 74.5741 204.518 74.6642 204.278C74.7642 204.038 74.8943 203.833 75.0545 203.663C75.2246 203.493 75.4198 203.357 75.6399 203.257C75.8701 203.157 76.1103 203.107 76.3605 203.107C76.6107 203.107 76.8459 203.157 77.066 203.257C77.2962 203.357 77.4964 203.493 77.6665 203.663C77.8366 203.833 77.9667 204.038 78.0568 204.278C78.1569 204.518 78.2069 204.779 78.2069 205.059C78.2069 205.349 78.1569 205.614 78.0568 205.854C77.9667 206.085 77.8366 206.29 77.6665 206.47C77.4964 206.64 77.2962 206.775 77.066 206.875C76.8459 206.965 76.6107 207.01 76.3605 207.01ZM81.8426 207.01C81.5924 207.01 81.3523 206.965 81.1221 206.875C80.9019 206.775 80.7068 206.64 80.5366 206.47C80.3765 206.29 80.2464 206.085 80.1463 205.854C80.0563 205.614 80.0112 205.349 80.0112 205.059C80.0112 204.779 80.0563 204.518 80.1463 204.278C80.2464 204.038 80.3765 203.833 80.5366 203.663C80.7068 203.493 80.9019 203.357 81.1221 203.257C81.3523 203.157 81.5924 203.107 81.8426 203.107C82.0928 203.107 82.328 203.157 82.5482 203.257C82.7783 203.357 82.9785 203.493 83.1486 203.663C83.3188 203.833 83.4489 204.038 83.5389 204.278C83.639 204.518 83.689 204.779 83.689 205.059C83.689 205.349 83.639 205.614 83.5389 205.854C83.4489 206.085 83.3188 206.29 83.1486 206.47C82.9785 206.64 82.7783 206.775 82.5482 206.875C82.328 206.965 82.0928 207.01 81.8426 207.01ZM87.3248 207.01C87.0746 207.01 86.8344 206.965 86.6042 206.875C86.3841 206.775 86.1889 206.64 86.0188 206.47C85.8586 206.29 85.7285 206.085 85.6285 205.854C85.5384 205.614 85.4934 205.349 85.4934 205.059C85.4934 204.779 85.5384 204.518 85.6285 204.278C85.7285 204.038 85.8586 203.833 86.0188 203.663C86.1889 203.493 86.3841 203.357 86.6042 203.257C86.8344 203.157 87.0746 203.107 87.3248 203.107C87.575 203.107 87.8102 203.157 88.0303 203.257C88.2605 203.357 88.4607 203.493 88.6308 203.663C88.8009 203.833 88.931 204.038 89.0211 204.278C89.1212 204.518 89.1712 204.779 89.1712 205.059C89.1712 205.349 89.1212 205.614 89.0211 205.854C88.931 206.085 88.8009 206.29 88.6308 206.47C88.4607 206.64 88.2605 206.775 88.0303 206.875C87.8102 206.965 87.575 207.01 87.3248 207.01ZM92.8069 207.01C92.5567 207.01 92.3166 206.965 92.0864 206.875C91.8662 206.775 91.6711 206.64 91.5009 206.47C91.3408 206.29 91.2107 206.085 91.1106 205.854C91.0206 205.614 90.9755 205.349 90.9755 205.059C90.9755 204.779 91.0206 204.518 91.1106 204.278C91.2107 204.038 91.3408 203.833 91.5009 203.663C91.6711 203.493 91.8662 203.357 92.0864 203.257C92.3166 203.157 92.5567 203.107 92.8069 203.107C93.0571 203.107 93.2923 203.157 93.5125 203.257C93.7427 203.357 93.9428 203.493 94.1129 203.663C94.2831 203.833 94.4132 204.038 94.5032 204.278C94.6033 204.518 94.6534 204.779 94.6534 205.059C94.6534 205.349 94.6033 205.614 94.5032 205.854C94.4132 206.085 94.2831 206.29 94.1129 206.47C93.9428 206.64 93.7427 206.775 93.5125 206.875C93.2923 206.965 93.0571 207.01 92.8069 207.01ZM98.2891 207.01C98.0389 207.01 97.7987 206.965 97.5685 206.875C97.3484 206.775 97.1532 206.64 96.9831 206.47C96.823 206.29 96.6929 206.085 96.5928 205.854C96.5027 205.614 96.4577 205.349 96.4577 205.059C96.4577 204.779 96.5027 204.518 96.5928 204.278C96.6929 204.038 96.823 203.833 96.9831 203.663C97.1532 203.493 97.3484 203.357 97.5685 203.257C97.7987 203.157 98.0389 203.107 98.2891 203.107C98.5393 203.107 98.7745 203.157 98.9946 203.257C99.2248 203.357 99.425 203.493 99.5951 203.663C99.7652 203.833 99.8953 204.038 99.9854 204.278C100.085 204.518 100.136 204.779 100.136 205.059C100.136 205.349 100.085 205.614 99.9854 205.854C99.8953 206.085 99.7652 206.29 99.5951 206.47C99.425 206.64 99.2248 206.775 98.9946 206.875C98.7745 206.965 98.5393 207.01 98.2891 207.01ZM103.771 207.01C103.521 207.01 103.281 206.965 103.051 206.875C102.831 206.775 102.635 206.64 102.465 206.47C102.305 206.29 102.175 206.085 102.075 205.854C101.985 205.614 101.94 205.349 101.94 205.059C101.94 204.779 101.985 204.518 102.075 204.278C102.175 204.038 102.305 203.833 102.465 203.663C102.635 203.493 102.831 203.357 103.051 203.257C103.281 203.157 103.521 203.107 103.771 203.107C104.021 203.107 104.257 203.157 104.477 203.257C104.707 203.357 104.907 203.493 105.077 203.663C105.247 203.833 105.377 204.038 105.468 204.278C105.568 204.518 105.618 204.779 105.618 205.059C105.618 205.349 105.568 205.614 105.468 205.854C105.377 206.085 105.247 206.29 105.077 206.47C104.907 206.64 104.707 206.775 104.477 206.875C104.257 206.965 104.021 207.01 103.771 207.01ZM109.253 207.01C109.003 207.01 108.763 206.965 108.533 206.875C108.313 206.775 108.118 206.64 107.947 206.47C107.787 206.29 107.657 206.085 107.557 205.854C107.467 205.614 107.422 205.349 107.422 205.059C107.422 204.779 107.467 204.518 107.557 204.278C107.657 204.038 107.787 203.833 107.947 203.663C108.118 203.493 108.313 203.357 108.533 203.257C108.763 203.157 109.003 203.107 109.253 203.107C109.504 203.107 109.739 203.157 109.959 203.257C110.189 203.357 110.389 203.493 110.559 203.663C110.73 203.833 110.86 204.038 110.95 204.278C111.05 204.518 111.1 204.779 111.1 205.059C111.1 205.349 111.05 205.614 110.95 205.854C110.86 206.085 110.73 206.29 110.559 206.47C110.389 206.64 110.189 206.775 109.959 206.875C109.739 206.965 109.504 207.01 109.253 207.01ZM114.736 207.01C114.485 207.01 114.245 206.965 114.015 206.875C113.795 206.775 113.6 206.64 113.43 206.47C113.269 206.29 113.139 206.085 113.039 205.854C112.949 205.614 112.904 205.349 112.904 205.059C112.904 204.779 112.949 204.518 113.039 204.278C113.139 204.038 113.269 203.833 113.43 203.663C113.6 203.493 113.795 203.357 114.015 203.257C114.245 203.157 114.485 203.107 114.736 203.107C114.986 203.107 115.221 203.157 115.441 203.257C115.671 203.357 115.871 203.493 116.042 203.663C116.212 203.833 116.342 204.038 116.432 204.278C116.532 204.518 116.582 204.779 116.582 205.059C116.582 205.349 116.532 205.614 116.432 205.854C116.342 206.085 116.212 206.29 116.042 206.47C115.871 206.64 115.671 206.775 115.441 206.875C115.221 206.965 114.986 207.01 114.736 207.01Z" fill="white"/>
<path d="M179.351 186V180.091H182.756V180.722H180.099V182.577H182.341V183.217H180.099V185.361H182.846V186H179.351ZM183.495 186L184.927 183.712L183.603 181.623H184.405L184.99 182.586C185.056 182.706 185.125 182.83 185.197 182.956C185.269 183.076 185.344 183.196 185.423 183.316H185.459C185.525 183.196 185.591 183.076 185.657 182.956C185.723 182.83 185.789 182.706 185.855 182.586L186.386 181.623H187.161L185.837 183.793L187.26 186H186.458L185.819 184.982C185.741 184.85 185.663 184.718 185.585 184.586C185.507 184.454 185.426 184.325 185.341 184.199H185.305C185.227 184.325 185.152 184.454 185.08 184.586C185.008 184.712 184.936 184.844 184.864 184.982L184.27 186H183.495ZM188.488 187.846V181.623H189.1L189.163 182.127H189.19C189.388 181.959 189.604 181.815 189.839 181.695C190.079 181.575 190.328 181.515 190.586 181.515C190.868 181.515 191.118 181.569 191.334 181.677C191.55 181.779 191.73 181.929 191.874 182.127C192.018 182.319 192.126 182.553 192.198 182.83C192.276 183.1 192.315 183.406 192.315 183.748C192.315 184.121 192.264 184.454 192.162 184.748C192.06 185.036 191.922 185.282 191.748 185.487C191.574 185.691 191.373 185.847 191.145 185.955C190.916 186.057 190.676 186.108 190.424 186.108C190.22 186.108 190.016 186.063 189.812 185.973C189.613 185.883 189.412 185.76 189.208 185.604L189.226 186.369V187.846H188.488ZM190.298 185.487C190.478 185.487 190.643 185.448 190.793 185.37C190.949 185.285 191.082 185.171 191.19 185.027C191.304 184.877 191.391 184.694 191.451 184.478C191.517 184.262 191.55 184.018 191.55 183.748C191.55 183.508 191.529 183.289 191.487 183.091C191.445 182.893 191.376 182.724 191.28 182.586C191.19 182.442 191.069 182.331 190.919 182.253C190.775 182.175 190.601 182.136 190.397 182.136C190.211 182.136 190.022 182.187 189.83 182.289C189.643 182.391 189.442 182.538 189.226 182.73V185.027C189.424 185.195 189.616 185.315 189.803 185.388C189.989 185.454 190.154 185.487 190.298 185.487ZM193.844 186V181.623H194.582V186H193.844ZM194.222 180.722C194.078 180.722 193.955 180.677 193.853 180.587C193.757 180.497 193.709 180.383 193.709 180.245C193.709 180.1 193.757 179.986 193.853 179.902C193.955 179.812 194.078 179.767 194.222 179.767C194.366 179.767 194.486 179.812 194.582 179.902C194.684 179.986 194.736 180.1 194.736 180.245C194.736 180.383 194.684 180.497 194.582 180.587C194.486 180.677 194.366 180.722 194.222 180.722ZM196.421 186V181.623H197.033L197.096 182.415H197.123C197.273 182.139 197.453 181.92 197.664 181.758C197.88 181.596 198.114 181.515 198.366 181.515C198.54 181.515 198.696 181.545 198.835 181.605L198.69 182.253C198.618 182.229 198.552 182.211 198.492 182.199C198.432 182.187 198.357 182.181 198.267 182.181C198.081 182.181 197.886 182.256 197.682 182.406C197.483 182.556 197.309 182.818 197.159 183.19V186H196.421ZM200.204 187.882C200.102 187.882 200.009 187.873 199.925 187.855C199.841 187.843 199.763 187.822 199.691 187.792L199.835 187.207C199.883 187.219 199.937 187.231 199.997 187.243C200.057 187.261 200.114 187.27 200.168 187.27C200.42 187.27 200.625 187.18 200.781 187C200.943 186.826 201.069 186.603 201.159 186.333L201.258 186.009L199.502 181.623H200.267L201.159 184.045C201.225 184.238 201.294 184.442 201.366 184.658C201.444 184.868 201.516 185.075 201.582 185.279H201.618C201.684 185.081 201.747 184.874 201.807 184.658C201.867 184.442 201.928 184.238 201.988 184.045L202.771 181.623H203.492L201.843 186.36C201.765 186.576 201.678 186.778 201.582 186.964C201.486 187.15 201.372 187.309 201.24 187.441C201.108 187.579 200.958 187.687 200.79 187.765C200.622 187.843 200.426 187.882 200.204 187.882ZM208.355 186.108C207.803 186.108 207.362 185.91 207.031 185.514C206.707 185.117 206.545 184.553 206.545 183.82C206.545 183.466 206.596 183.148 206.698 182.866C206.806 182.577 206.947 182.334 207.121 182.136C207.296 181.938 207.497 181.785 207.725 181.677C207.953 181.569 208.193 181.515 208.445 181.515C208.698 181.515 208.917 181.56 209.103 181.65C209.289 181.74 209.478 181.863 209.67 182.019L209.634 181.271V179.587H210.382V186H209.769L209.706 185.487H209.679C209.505 185.655 209.304 185.802 209.076 185.928C208.854 186.048 208.614 186.108 208.355 186.108ZM208.518 185.487C208.722 185.487 208.914 185.439 209.094 185.342C209.274 185.24 209.454 185.087 209.634 184.883V182.595C209.448 182.427 209.268 182.31 209.094 182.244C208.926 182.172 208.752 182.136 208.572 182.136C208.397 182.136 208.232 182.178 208.076 182.262C207.926 182.34 207.794 182.454 207.68 182.604C207.566 182.748 207.476 182.923 207.41 183.127C207.344 183.331 207.311 183.559 207.311 183.811C207.311 184.34 207.416 184.751 207.626 185.045C207.836 185.339 208.133 185.487 208.518 185.487ZM213.225 186.108C212.859 186.108 212.553 186 212.307 185.784C212.066 185.568 211.946 185.261 211.946 184.865C211.946 184.385 212.16 184.018 212.586 183.766C213.012 183.508 213.694 183.328 214.63 183.226C214.63 183.088 214.615 182.953 214.585 182.821C214.561 182.688 214.516 182.571 214.45 182.469C214.384 182.367 214.291 182.286 214.171 182.226C214.057 182.16 213.91 182.127 213.73 182.127C213.478 182.127 213.24 182.175 213.018 182.271C212.796 182.367 212.598 182.475 212.424 182.595L212.135 182.082C212.34 181.95 212.589 181.824 212.883 181.704C213.177 181.578 213.502 181.515 213.856 181.515C214.39 181.515 214.778 181.68 215.018 182.01C215.258 182.334 215.378 182.77 215.378 183.316V186H214.766L214.702 185.478H214.675C214.465 185.652 214.24 185.802 214 185.928C213.76 186.048 213.502 186.108 213.225 186.108ZM213.442 185.514C213.652 185.514 213.85 185.466 214.036 185.37C214.222 185.267 214.42 185.12 214.63 184.928V183.712C214.264 183.76 213.955 183.817 213.703 183.883C213.457 183.949 213.255 184.027 213.099 184.118C212.949 184.208 212.838 184.313 212.766 184.433C212.7 184.547 212.667 184.673 212.667 184.811C212.667 185.063 212.742 185.243 212.892 185.352C213.042 185.46 213.225 185.514 213.442 185.514ZM218.37 186.108C218.136 186.108 217.938 186.072 217.776 186C217.62 185.928 217.491 185.829 217.389 185.703C217.293 185.577 217.224 185.424 217.181 185.243C217.139 185.063 217.118 184.865 217.118 184.649V182.226H216.47V181.668L217.154 181.623L217.245 180.398H217.866V181.623H219.046V182.226H217.866V184.658C217.866 184.928 217.914 185.138 218.01 185.288C218.112 185.433 218.289 185.505 218.542 185.505C218.62 185.505 218.704 185.493 218.794 185.469C218.884 185.445 218.965 185.418 219.037 185.388L219.181 185.946C219.061 185.988 218.929 186.024 218.785 186.054C218.647 186.09 218.509 186.108 218.37 186.108ZM222.047 186.108C221.753 186.108 221.477 186.057 221.219 185.955C220.966 185.847 220.744 185.697 220.552 185.505C220.366 185.306 220.219 185.066 220.111 184.784C220.003 184.502 219.949 184.181 219.949 183.82C219.949 183.46 220.003 183.139 220.111 182.857C220.225 182.568 220.372 182.325 220.552 182.127C220.738 181.929 220.948 181.779 221.183 181.677C221.417 181.569 221.66 181.515 221.912 181.515C222.188 181.515 222.435 181.563 222.651 181.659C222.873 181.755 223.056 181.893 223.2 182.073C223.35 182.253 223.464 182.469 223.542 182.721C223.62 182.974 223.659 183.256 223.659 183.568C223.659 183.646 223.656 183.724 223.65 183.802C223.65 183.874 223.644 183.937 223.632 183.991H220.678C220.708 184.46 220.852 184.832 221.11 185.108C221.375 185.379 221.717 185.514 222.137 185.514C222.347 185.514 222.54 185.484 222.714 185.424C222.894 185.358 223.065 185.273 223.227 185.171L223.488 185.658C223.296 185.778 223.083 185.883 222.849 185.973C222.615 186.063 222.347 186.108 222.047 186.108ZM220.669 183.46H223.011C223.011 183.016 222.915 182.679 222.723 182.451C222.537 182.217 222.272 182.1 221.93 182.1C221.774 182.1 221.624 182.13 221.48 182.19C221.342 182.25 221.216 182.34 221.101 182.46C220.987 182.574 220.891 182.715 220.813 182.884C220.741 183.052 220.693 183.244 220.669 183.46Z" fill="white"/>
<path d="M180.972 207.01C180.722 207.01 180.482 206.965 180.252 206.875C180.032 206.775 179.836 206.64 179.666 206.47C179.506 206.29 179.376 206.085 179.276 205.854C179.186 205.614 179.141 205.349 179.141 205.059C179.141 204.779 179.186 204.518 179.276 204.278C179.376 204.038 179.506 203.833 179.666 203.663C179.836 203.493 180.032 203.357 180.252 203.257C180.482 203.157 180.722 203.107 180.972 203.107C181.222 203.107 181.458 203.157 181.678 203.257C181.908 203.357 182.108 203.493 182.278 203.663C182.448 203.833 182.579 204.038 182.669 204.278C182.769 204.518 182.819 204.779 182.819 205.059C182.819 205.349 182.769 205.614 182.669 205.854C182.579 206.085 182.448 206.29 182.278 206.47C182.108 206.64 181.908 206.775 181.678 206.875C181.458 206.965 181.222 207.01 180.972 207.01ZM186.454 207.01C186.204 207.01 185.964 206.965 185.734 206.875C185.514 206.775 185.319 206.64 185.148 206.47C184.988 206.29 184.858 206.085 184.758 205.854C184.668 205.614 184.623 205.349 184.623 205.059C184.623 204.779 184.668 204.518 184.758 204.278C184.858 204.038 184.988 203.833 185.148 203.663C185.319 203.493 185.514 203.357 185.734 203.257C185.964 203.157 186.204 203.107 186.454 203.107C186.705 203.107 186.94 203.157 187.16 203.257C187.39 203.357 187.59 203.493 187.76 203.663C187.931 203.833 188.061 204.038 188.151 204.278C188.251 204.518 188.301 204.779 188.301 205.059C188.301 205.349 188.251 205.614 188.151 205.854C188.061 206.085 187.931 206.29 187.76 206.47C187.59 206.64 187.39 206.775 187.16 206.875C186.94 206.965 186.705 207.01 186.454 207.01ZM191.937 207.01C191.686 207.01 191.446 206.965 191.216 206.875C190.996 206.775 190.801 206.64 190.631 206.47C190.47 206.29 190.34 206.085 190.24 205.854C190.15 205.614 190.105 205.349 190.105 205.059C190.105 204.779 190.15 204.518 190.24 204.278C190.34 204.038 190.47 203.833 190.631 203.663C190.801 203.493 190.996 203.357 191.216 203.257C191.446 203.157 191.686 203.107 191.937 203.107C192.187 203.107 192.422 203.157 192.642 203.257C192.872 203.357 193.072 203.493 193.243 203.663C193.413 203.833 193.543 204.038 193.633 204.278C193.733 204.518 193.783 204.779 193.783 205.059C193.783 205.349 193.733 205.614 193.633 205.854C193.543 206.085 193.413 206.29 193.243 206.47C193.072 206.64 192.872 206.775 192.642 206.875C192.422 206.965 192.187 207.01 191.937 207.01ZM197.419 207.01C197.169 207.01 196.928 206.965 196.698 206.875C196.478 206.775 196.283 206.64 196.113 206.47C195.953 206.29 195.823 206.085 195.722 205.854C195.632 205.614 195.587 205.349 195.587 205.059C195.587 204.779 195.632 204.518 195.722 204.278C195.823 204.038 195.953 203.833 196.113 203.663C196.283 203.493 196.478 203.357 196.698 203.257C196.928 203.157 197.169 203.107 197.419 203.107C197.669 203.107 197.904 203.157 198.124 203.257C198.354 203.357 198.555 203.493 198.725 203.663C198.895 203.833 199.025 204.038 199.115 204.278C199.215 204.518 199.265 204.779 199.265 205.059C199.265 205.349 199.215 205.614 199.115 205.854C199.025 206.085 198.895 206.29 198.725 206.47C198.555 206.64 198.354 206.775 198.124 206.875C197.904 206.965 197.669 207.01 197.419 207.01ZM202.901 207.01C202.651 207.01 202.411 206.965 202.18 206.875C201.96 206.775 201.765 206.64 201.595 206.47C201.435 206.29 201.305 206.085 201.205 205.854C201.115 205.614 201.069 205.349 201.069 205.059C201.069 204.779 201.115 204.518 201.205 204.278C201.305 204.038 201.435 203.833 201.595 203.663C201.765 203.493 201.96 203.357 202.18 203.257C202.411 203.157 202.651 203.107 202.901 203.107C203.151 203.107 203.386 203.157 203.606 203.257C203.837 203.357 204.037 203.493 204.207 203.663C204.377 203.833 204.507 204.038 204.597 204.278C204.697 204.518 204.747 204.779 204.747 205.059C204.747 205.349 204.697 205.614 204.597 205.854C204.507 206.085 204.377 206.29 204.207 206.47C204.037 206.64 203.837 206.775 203.606 206.875C203.386 206.965 203.151 207.01 202.901 207.01ZM208.383 207.01C208.133 207.01 207.893 206.965 207.662 206.875C207.442 206.775 207.247 206.64 207.077 206.47C206.917 206.29 206.787 206.085 206.687 205.854C206.597 205.614 206.552 205.349 206.552 205.059C206.552 204.779 206.597 204.518 206.687 204.278C206.787 204.038 206.917 203.833 207.077 203.663C207.247 203.493 207.442 203.357 207.662 203.257C207.893 203.157 208.133 203.107 208.383 203.107C208.633 203.107 208.868 203.157 209.089 203.257C209.319 203.357 209.519 203.493 209.689 203.663C209.859 203.833 209.989 204.038 210.079 204.278C210.179 204.518 210.229 204.779 210.229 205.059C210.229 205.349 210.179 205.614 210.079 205.854C209.989 206.085 209.859 206.29 209.689 206.47C209.519 206.64 209.319 206.775 209.089 206.875C208.868 206.965 208.633 207.01 208.383 207.01ZM213.865 207.01C213.615 207.01 213.375 206.965 213.145 206.875C212.924 206.775 212.729 206.64 212.559 206.47C212.399 206.29 212.269 206.085 212.169 205.854C212.079 205.614 212.034 205.349 212.034 205.059C212.034 204.779 212.079 204.518 212.169 204.278C212.269 204.038 212.399 203.833 212.559 203.663C212.729 203.493 212.924 203.357 213.145 203.257C213.375 203.157 213.615 203.107 213.865 203.107C214.115 203.107 214.351 203.157 214.571 203.257C214.801 203.357 215.001 203.493 215.171 203.663C215.341 203.833 215.471 204.038 215.561 204.278C215.662 204.518 215.712 204.779 215.712 205.059C215.712 205.349 215.662 205.614 215.561 205.854C215.471 206.085 215.341 206.29 215.171 206.47C215.001 206.64 214.801 206.775 214.571 206.875C214.351 206.965 214.115 207.01 213.865 207.01ZM219.347 207.01C219.097 207.01 218.857 206.965 218.627 206.875C218.407 206.775 218.211 206.64 218.041 206.47C217.881 206.29 217.751 206.085 217.651 205.854C217.561 205.614 217.516 205.349 217.516 205.059C217.516 204.779 217.561 204.518 217.651 204.278C217.751 204.038 217.881 203.833 218.041 203.663C218.211 203.493 218.407 203.357 218.627 203.257C218.857 203.157 219.097 203.107 219.347 203.107C219.598 203.107 219.833 203.157 220.053 203.257C220.283 203.357 220.483 203.493 220.653 203.663C220.823 203.833 220.954 204.038 221.044 204.278C221.144 204.518 221.194 204.779 221.194 205.059C221.194 205.349 221.144 205.614 221.044 205.854C220.954 206.085 220.823 206.29 220.653 206.47C220.483 206.64 220.283 206.775 220.053 206.875C219.833 206.965 219.598 207.01 219.347 207.01Z" fill="white"/>
<path opacity="0.4" d="M335.428 137.514C345.377 137.514 353.442 129.449 353.442 119.5C353.442 109.551 345.377 101.486 335.428 101.486C325.479 101.486 317.414 109.551 317.414 119.5C317.414 129.449 325.479 137.514 335.428 137.514Z" fill="white"/>
<path opacity="0.859468" d="M313.014 137.514C322.963 137.514 331.028 129.449 331.028 119.5C331.028 109.551 322.963 101.486 313.014 101.486C303.065 101.486 295 109.551 295 119.5C295 129.449 303.065 137.514 313.014 137.514Z" fill="white"/>
</g>
<defs>
<linearGradient id="paint0_linear_12_5346" x1="380" y1="240" x2="-24.8551" y2="54.142" gradientUnits="userSpaceOnUse">
<stop stop-color="#347893"/>
<stop offset="1" stop-color="#347893"/>
</linearGradient>
<clipPath id="clip0_12_5346">
<rect width="380" height="240" rx="16.5127" fill="white"/>
</clipPath>
</defs>
</svg>
